<svg width="24" height="30" viewBox="0 0 24 30" fill="none" xmlns="http://www.w3.org/2000/svg">
<path d="M15.1363 26.6158C14.3482 26.6159 13.3252 26.3663 12.0004 25.6835C10.1603 24.7353 8.04646 23.1125 6.04829 21.1144C4.05013 19.1163 2.42749 17.0025 1.47921 15.1624C0.00534481 12.3024 0.550384 10.8475 1.26728 10.1307L4.0097 7.38835C4.16081 7.22622 4.38124 7.15561 4.62159 7.1937C5.11197 7.27157 6.0865 7.99438 6.81769 8.587C7.54888 9.17961 8.45773 9.9834 8.6355 10.447C8.72861 10.6899 8.69532 10.936 8.54427 11.1224C8.53144 11.1382 8.51784 11.1534 8.50343 11.1678L6.31472 13.3565C6.4407 13.8519 7.50821 15.4094 9.63083 17.5321C11.7534 19.6547 13.311 20.7221 13.8064 20.8482L15.9951 18.6594C16.0095 18.645 16.0246 18.6314 16.0405 18.6186C16.1317 18.5445 16.3835 18.3874 16.7475 18.527C17.2763 18.7298 18.1443 19.7336 18.6146 20.3138C19.0849 20.8941 19.8873 21.9511 19.976 22.5105C20.0295 22.8474 19.8786 23.0532 19.7789 23.1488L17.0322 25.8957C16.6475 26.2804 16.0497 26.6158 15.1363 26.6158ZM4.61603 8.43928L2.09597 10.9593C1.25509 11.8002 2.00134 13.6173 2.52095 14.6256C3.41521 16.3608 4.9622 18.3709 6.87699 20.2857C8.79177 22.2005 10.8019 23.7475 12.5373 24.6419C13.5456 25.1615 15.363 25.9077 16.2036 25.0669L18.7432 22.5273C18.5959 22.2487 18.2488 21.7234 17.7043 21.0516C17.2004 20.4299 16.7842 19.9994 16.5331 19.7788L14.5323 21.7795C13.912 22.3998 12.8624 21.7815 11.9175 21.0949C11.0193 20.4422 9.91284 19.4711 8.80197 18.3601C7.69114 17.2493 6.72013 16.143 6.06769 15.245C5.38126 14.3002 4.7631 13.2508 5.38331 12.6306L7.36384 10.65C6.80386 10.0445 5.26542 8.80297 4.61603 8.43928Z" fill="#0B44AA"/>
<path d="M19.9762 22.5107C19.8874 21.9513 19.0851 20.8943 18.6148 20.314C18.1445 19.7338 17.2765 18.73 16.7477 18.5272C16.3836 18.3876 16.1319 18.5448 16.0406 18.6188C16.0248 18.6316 16.0096 18.6453 15.9952 18.6597L13.8066 20.8484C13.3112 20.7224 11.7536 19.6549 9.631 17.5323C7.50838 15.4096 6.44092 13.8522 6.31488 13.3567L8.50359 11.168C8.518 11.1536 8.53163 11.1385 8.54443 11.1226C8.69549 10.9362 8.72877 10.6901 8.63566 10.4472C8.45789 9.98362 7.54898 9.17983 6.81785 8.58722C6.08666 7.99454 5.11213 7.27179 4.62176 7.19392C4.38135 7.15589 4.16098 7.22649 4.00986 7.38856L1.26744 10.1309C0.550605 10.8478 0.00550765 12.3026 1.47937 15.1627C2.42766 17.0027 4.05029 19.1165 6.04846 21.1146C8.04662 23.1127 10.1604 24.7355 12.0005 25.6838C13.3253 26.3665 14.3483 26.6161 15.1365 26.616C16.0499 26.616 16.6477 26.2807 17.0324 25.8958L19.7791 23.149C19.8787 23.0533 20.0297 22.8476 19.9762 22.5107ZM16.2036 25.0672C15.3629 25.908 13.5456 25.1618 12.5372 24.6421C10.802 23.7478 8.79176 22.2008 6.87697 20.2859C4.96219 18.3712 3.4152 16.3611 2.52094 14.6258C2.00133 13.6175 1.25508 11.8004 2.09596 10.9596L4.61601 8.43956C5.26541 8.80325 6.80385 10.0447 7.36383 10.6504L5.3833 12.6309C4.76309 13.2512 5.38125 14.3006 6.06768 15.2454C6.72012 16.1434 7.69113 17.2497 8.80195 18.3605C9.91283 19.4715 11.0193 20.4426 11.9174 21.0953C12.8624 21.7819 13.912 22.4002 14.5323 21.7799L16.533 19.7792C16.7842 19.9998 17.2005 20.4302 17.7043 21.052C18.2488 21.7238 18.596 22.2491 18.7432 22.5277L16.2036 25.0672ZM18.8671 15.9345C18.5436 15.9345 18.2812 15.6722 18.2812 15.3486C18.2812 11.6032 15.234 8.55593 11.4885 8.55593C11.1649 8.55593 10.9025 8.2936 10.9025 7.96999C10.9025 7.64638 11.1649 7.38405 11.4885 7.38405C15.8801 7.38405 19.4531 10.9569 19.4531 15.3486C19.4531 15.6723 19.1907 15.9345 18.8671 15.9345Z" fill="#0B44AA"/>
<path d="M15.1778 16.6324C14.8543 16.6324 14.5919 16.3699 14.5919 16.0464C14.5919 13.9504 12.8866 12.2452 10.7907 12.2452C10.4671 12.2452 10.2047 11.9829 10.2047 11.6593C10.2047 11.3357 10.4671 11.0734 10.7907 11.0734C13.5329 11.0734 15.7638 13.3043 15.7638 16.0464C15.7638 16.37 15.5014 16.6324 15.1778 16.6324ZM22.867 15.9925C22.5434 15.9925 22.281 15.7302 22.281 15.4065C22.281 9.42365 17.4136 4.55615 11.4306 4.55615C11.107 4.55615 10.8446 4.29383 10.8446 3.97021C10.8446 3.6466 11.107 3.38428 11.4306 3.38428C18.0597 3.38428 23.4529 8.77742 23.4529 15.4065C23.4529 15.7302 23.1905 15.9925 22.867 15.9925Z" fill="#0B44AA"/>
</svg>
