<svg width="1800" height="155" viewBox="0 0 1800 155" fill="none" xmlns="http://www.w3.org/2000/svg">
<g opacity="0.3" clip-path="url(#clip0_2844_173)">
<path d="M1797.07 46.33L1746.19 70.9643L1742.98 69.7534L1744.02 66.4889L1794.92 41.8643C1795.69 43.327 1796.4 44.8091 1797.07 46.33Z" fill="#6CB5F4"/>
<path d="M1800.39 55.3194L1759.03 75.4395L1752.31 73.1437L1798.81 50.6309C1799.4 52.1711 1799.93 53.7307 1800.39 55.3097" fill="#6CB5F4"/>
<path d="M1792.65 37.8149L1746.12 60.347L1748.48 53.6533L1789.97 33.6785C1790.91 35.025 1791.79 36.4102 1792.65 37.8149Z" fill="#6CB5F4"/>
<path d="M1746.41 2.82488L1733.82 58.3901L1730.88 60.1531L1728.97 57.2954L1741.58 1.67212C1743.21 2.01117 1744.81 2.37928 1746.4 2.8152" fill="#6CB5F4"/>
<path d="M1755.5 5.89602L1745.33 51.1541L1739.35 54.9709L1750.85 4.15234C1752.42 4.69482 1753.97 5.26636 1755.49 5.88633" fill="#6CB5F4"/>
<path d="M1737.02 0.907145L1725.47 51.8419L1721.71 45.8068L1732.09 0.403412C1732.09 0.403412 1732.09 0.374355 1732.09 0.35498C1733.75 0.480913 1735.38 0.664967 1737.01 0.907145" fill="#6CB5F4"/>
<path d="M1716.28 60.221L1715.82 63.6308L1712.4 63.3305L1676.31 18.208C1677.58 17.1424 1678.88 16.1156 1680.22 15.1372L1716.27 60.2306L1716.28 60.221Z" fill="#6CB5F4"/>
<path d="M1717.8 46.7076L1717.06 53.7695L1684.04 12.4928C1685.43 11.6016 1686.85 10.7491 1688.29 9.94507C1688.4 10.0904 1688.52 10.2454 1688.64 10.4004L1717.8 46.7173V46.7076Z" fill="#6CB5F4"/>
<path d="M1705.94 62.6526L1698.89 61.8291L1669.87 25.396C1669.71 25.1926 1669.55 24.9891 1669.36 24.7954C1670.47 23.5748 1671.65 22.4027 1672.86 21.2693L1705.95 62.6429L1705.94 62.6526Z" fill="#6CB5F4"/>
<path d="M1709.13 77.5322L1706.76 80.0218L-112.461 80.0509C-112.49 79.2662 -112.5 78.4816 -112.5 77.6872C-112.5 76.8251 -112.49 75.9629 -112.452 75.1008L1706.76 75.062L1709.13 77.5322Z" fill="#6CB5F4"/>
<path d="M1702.2 70.4312L-112.161 70.47C-112.026 68.8038 -111.822 67.1667 -111.551 65.5296C-111.183 65.5489 -110.815 65.5586 -110.456 65.5586L1697.14 65.4424L1702.19 70.4312H1702.2Z" fill="#6CB5F4"/>
<path d="M1702.21 84.6614L1697.16 89.6599L-100.427 89.6018C-100.814 89.6018 -101.202 89.6115 -101.589 89.6309C-101.841 88.0034 -102.044 86.3566 -102.19 84.7001L1702.21 84.6711V84.6614Z" fill="#6CB5F4"/>
<path d="M1716.3 94.8524L1680.15 140.198C1678.81 139.219 1677.51 138.192 1676.24 137.127L1712.42 91.7719L1715.84 91.4619L1716.31 94.8621L1716.3 94.8524Z" fill="#6CB5F4"/>
<path d="M1705.96 92.4407L1672.79 134.047C1671.57 132.913 1670.41 131.732 1669.29 130.511C1669.5 130.269 1669.72 130.007 1669.93 129.746L1698.9 93.2738L1705.95 92.4407H1705.96Z" fill="#6CB5F4"/>
<path d="M1717.84 108.366L1688.73 144.722C1688.56 144.945 1688.38 145.177 1688.21 145.4C1686.76 144.586 1685.35 143.734 1683.96 142.843L1717.08 101.314L1717.84 108.376V108.366Z" fill="#6CB5F4"/>
<path d="M1746.58 152.511C1744.99 152.956 1743.38 153.334 1741.76 153.663L1729.02 97.7687L1730.92 94.9014L1733.86 96.6547L1746.59 152.511H1746.58Z" fill="#6CB5F4"/>
<path d="M1737.18 154.448C1735.57 154.68 1733.93 154.874 1732.26 155C1732.26 154.884 1732.23 154.758 1732.2 154.632L1721.75 109.248L1725.5 103.213L1737.18 154.438V154.448Z" fill="#6CB5F4"/>
<path d="M1755.66 149.41C1754.14 150.04 1752.6 150.621 1751.03 151.154L1739.37 100.064L1745.37 103.881L1755.63 149.304C1755.63 149.304 1755.65 149.372 1755.66 149.41Z" fill="#6CB5F4"/>
<path d="M1797.23 108.686C1796.56 110.207 1795.85 111.699 1795.1 113.161L1744.04 88.5367L1742.98 85.2722L1746.19 84.0613L1797.22 108.686H1797.23Z" fill="#6CB5F4"/>
<path d="M1792.85 117.211C1792.01 118.635 1791.12 120.03 1790.19 121.386L1748.51 101.372L1746.14 94.6785L1792.85 117.22V117.211Z" fill="#6CB5F4"/>
<path d="M1800.5 99.6765C1800.04 101.265 1799.52 102.825 1798.95 104.365L1752.32 81.8619L1759.03 79.5564L1800.5 99.6668V99.6765Z" fill="#6CB5F4"/>
</g>
<defs>
<clipPath id="clip0_2844_173">
<rect width="1800" height="155" fill="white" transform="matrix(-1 0 0 1 1800 0)"/>
</clipPath>
</defs>
</svg>
