<svg width="368" height="119" viewBox="0 0 368 119" fill="none" xmlns="http://www.w3.org/2000/svg">
<path d="M71.679 13.6018L71.6517 0.033371H71.0098L71.0391 13.3243C71.0411 14.4335 70.6505 15.4933 69.9682 16.2362L61.5261 24.8175L61.517 20.1887V20.1615C61.5493 19.4438 61.8198 18.7696 62.271 18.3003L68.7307 11.8042C69.2909 11.2198 69.6129 10.3609 69.6038 9.45851L69.5574 4.50269L69.5473 6.10352e-05L68.9185 0.00208282L68.9286 4.28367C68.9306 5.15068 68.6258 5.97632 68.0938 6.55668L61.3889 13.401C61.2839 13.515 61.191 13.6412 61.1072 13.7774C61.0225 13.6412 60.9286 13.515 60.8226 13.403L54.0349 6.58393C53.5019 6.00761 53.1931 5.18197 53.1931 4.31395L53.184 0.033371L52.5552 0.0353928L52.5653 4.53802L52.538 9.49384C52.532 10.3952 52.856 11.2511 53.4202 11.8325L59.9051 18.3033C60.3583 18.7736 60.6298 19.4438 60.6672 20.1635V20.1907L60.6773 24.8195L52.1979 16.2675C51.5135 15.5296 51.1219 14.4729 51.1199 13.3656L51.0927 0.0747528H50.4527L50.48 13.6442L50.4447 19.8728C50.4386 20.9881 50.8363 22.0419 51.5327 22.7615L59.678 30.8907C60.2564 31.4841 60.6127 32.3512 60.6571 33.2767L60.6864 54.9703L61.1052 55.4417L61.5776 54.9703L61.5372 33.311V33.2707C61.5816 32.3512 61.9349 31.4781 62.5092 30.8826L70.6606 22.7221C71.355 22.0005 71.7486 20.9437 71.7375 19.8304L71.679 13.6018ZM58.5395 35.1834L50.051 26.6192C49.3667 25.8783 48.9731 24.8216 48.971 23.7113L48.9216 0.0777855H48.2796V30.2215C48.2746 31.3368 48.6854 32.3895 49.3839 33.1092L57.5271 41.2373C58.155 41.8833 58.5163 42.826 58.5183 43.8222L58.5355 52.8366L59.4358 53.7288L59.4429 37.637C59.4449 36.6984 59.1168 35.8041 58.5395 35.1834ZM73.9308 0.0273132L73.1819 0.029335L73.2293 23.6628C73.2303 24.7731 72.8427 25.8319 72.1604 26.5748L63.7043 35.1733C63.1289 35.796 62.8049 36.6923 62.811 37.631V53.7369L63.7779 52.8285V52.8093L63.7608 43.8111C63.7588 42.8159 64.1161 41.8712 64.7408 41.2232L72.8528 33.0627C73.5473 32.3391 73.9389 31.2863 73.9308 30.171V0.0273132Z" fill="#3D82D4"/>
<path d="M32.0168 22.5127L21.3956 14.0686L20.9949 14.5702L31.4011 22.8397C32.2692 23.5311 32.8536 24.496 33.008 25.4932L34.4483 37.4437L30.8248 34.5641L30.8036 34.5469C30.2636 34.0736 29.9043 33.4417 29.8195 32.7958L28.7718 23.6956C28.6659 22.8932 28.1945 22.1049 27.4839 21.5498L23.5819 18.4945L20.0573 15.6926L19.6667 16.1852L23.0186 18.8488C23.6969 19.3878 24.1531 20.1418 24.2743 20.9189L25.44 30.4289C25.4643 30.5823 25.5046 30.7337 25.5591 30.8841C25.3997 30.8659 25.2422 30.8599 25.0878 30.873L15.5244 31.9237C14.7421 31.9812 13.9034 31.7067 13.2261 31.1657L9.87412 28.5021L9.4835 28.9946L13.0081 31.7955L16.8647 34.9083C17.5652 35.4765 18.4363 35.7561 19.2427 35.6784L28.3459 34.6479C28.9959 34.5863 29.6893 34.7922 30.2757 35.2131L30.2969 35.2293L33.9194 38.1089L21.9457 39.3998C20.9424 39.4755 19.8726 39.1222 19.0055 38.4319L8.60135 30.1614L8.20165 30.662L18.8249 39.1071L23.6707 43.0203C24.5387 43.7208 25.6096 44.067 26.6068 43.9711L38.0415 42.6781C38.8662 42.5964 39.7655 42.8588 40.5174 43.4008L57.4893 56.9127L58.1192 56.8794L58.0455 56.2163L41.0927 42.7357L41.0615 42.7094C40.3701 42.1008 39.9088 41.2812 39.8018 40.4606L38.5099 28.9986C38.3787 28.0055 37.7983 27.0385 36.9212 26.3532L32.0168 22.5127ZM40.686 46.2461L28.6971 47.537C27.6908 47.6097 26.6189 47.2575 25.7509 46.5671L7.24985 31.8601L6.85016 32.3617L30.407 51.1676C31.275 51.8681 32.355 52.2042 33.3532 52.1073L44.7849 50.8144C45.6822 50.7255 46.6441 51.0324 47.4243 51.6521L54.4795 57.262L55.7382 57.1156L43.1669 47.0697C42.4341 46.4833 41.5318 46.1815 40.686 46.2461ZM22.8137 12.2841L22.3474 12.8705L40.8465 27.5785C41.7155 28.2689 42.3009 29.2328 42.4553 30.23L43.9007 42.2027C44.0279 43.0415 44.5265 43.854 45.2633 44.4354L57.8497 54.4823L57.7447 53.16L57.7296 53.1479L50.6864 47.5482C49.9072 46.9284 49.3915 46.0604 49.2754 45.1681L47.9582 33.7375C47.826 32.7433 47.2477 31.7794 46.3705 31.09L22.8137 12.2841Z" fill="#2663BF"/>
<path d="M14.236 59.0684L1.01072 62.1005L1.15304 62.7272L14.1068 59.7538C15.1888 59.5065 16.3082 59.6518 17.1832 60.1535L27.4219 66.484L22.9112 67.5185L22.8839 67.5246C22.1774 67.6518 21.4588 67.5377 20.9016 67.2016L13.1358 62.3417C12.4424 61.9248 11.533 61.8007 10.6559 62.0106L5.83331 63.1532L1.44473 64.1605L1.58604 64.7732L5.75862 63.8153C6.60343 63.6205 7.4765 63.7346 8.15982 64.1252L16.3193 69.1476C16.4545 69.2243 16.5978 69.2869 16.7492 69.3384C16.6352 69.4514 16.5332 69.5705 16.4474 69.6997L11.3019 77.8289C10.8578 78.4759 10.1199 78.9603 9.27513 79.1521L5.10255 80.11L5.24386 80.7226L9.63142 79.7153L14.4702 78.6444C15.3513 78.4496 16.1134 77.9449 16.5564 77.2657L21.4295 69.5079C21.7868 68.9619 22.3813 68.5481 23.0747 68.3523L23.101 68.3472L27.6117 67.3116L21.1509 77.4746C20.5837 78.3053 19.64 78.922 18.56 79.1693L5.6052 82.1397L5.74752 82.7645L18.9738 79.7315L25.056 78.385C26.1441 78.1438 27.0838 77.523 27.6308 76.6843L33.7534 66.9412C34.2046 66.2458 34.9707 65.7058 35.8629 65.4575L57.0115 60.6228L57.3789 60.109L56.8147 59.7538L35.7025 64.5915L35.6631 64.6006C34.7567 64.761 33.8271 64.6096 33.1186 64.1817L23.3553 58.0409C22.4984 57.5231 21.38 57.3737 20.297 57.6321L14.236 59.0684ZM38.1915 67.1007L31.7217 77.2747C31.1504 78.1064 30.2066 78.7252 29.1257 78.9724L6.08968 84.2563L6.232 84.8821L35.6268 78.2033C36.7148 77.9621 37.6515 77.3282 38.1985 76.4875L44.3201 66.7464C44.8107 65.9904 45.6494 65.4302 46.6214 65.2072L55.4076 63.1925L56.0778 62.1176L40.3848 65.6755C39.4683 65.8814 38.6689 66.3992 38.1915 67.1007ZM0.5 59.8799L0.667549 60.6097L23.7035 55.3278C24.7855 55.0805 25.9039 55.2239 26.78 55.7255L37.0378 62.0651C37.7726 62.489 38.7183 62.6061 39.6328 62.3932L55.338 58.8242L54.2388 58.0823L54.2197 58.0863L45.4486 60.0969C44.4786 60.319 43.4784 60.1807 42.7082 59.7144L32.953 53.613C32.0941 53.0952 30.9798 52.9468 29.8948 53.2012L0.5 59.8799Z" fill="#0A45AB"/>
<path d="M31.7131 95.7711L25.8317 107.999L26.41 108.278L32.1683 96.299C32.6497 95.2998 33.4622 94.5155 34.3999 94.1441L45.7347 90.0926L43.7292 94.2632L43.7171 94.2874C43.3759 94.9193 42.8389 95.4098 42.2273 95.6359L33.5854 98.673C32.8264 98.9546 32.1622 99.5884 31.7787 100.405L29.6631 104.886L27.7121 108.945L28.2793 109.216L30.1335 105.358C30.5089 104.577 31.1428 103.965 31.8746 103.674L40.8899 100.43C41.0343 100.374 41.1725 100.3 41.3068 100.214C41.3249 100.374 41.3542 100.528 41.4006 100.675L44.5437 109.769C44.7728 110.519 44.6911 111.398 44.3136 112.178L42.4594 116.036L43.0257 116.308L44.9767 112.25L47.1579 107.8C47.5556 106.991 47.6363 106.08 47.3819 105.31L44.36 96.6624C44.1561 96.0426 44.2036 95.32 44.4831 94.6558L44.4953 94.6316L46.5008 90.46L50.412 101.85C50.7077 102.812 50.5997 103.935 50.1203 104.932L44.36 116.91L44.9363 117.188L50.8177 104.959L53.5601 99.3664C54.0506 98.3651 54.1515 97.2437 53.8376 96.293L50.0425 85.4285C49.7801 84.6432 49.8366 83.7066 50.199 82.8547L59.6151 63.311L59.4425 62.7034L58.8126 62.9224L49.4218 82.4399L49.4046 82.4772C48.9646 83.2857 48.2661 83.9175 47.4899 84.2042L36.5993 88.0033C35.6606 88.3505 34.846 89.1307 34.3717 90.1381L31.7131 95.7711ZM52.9353 82.0594L56.8505 93.4648C57.1442 94.4297 57.0392 95.5531 56.5578 96.5524L46.3151 117.851L46.8934 118.131L60.0127 90.9919C60.5033 89.9907 60.5921 88.8633 60.2762 87.9115L56.4821 77.05C56.1975 76.1951 56.2832 75.1888 56.7152 74.2905L60.6224 66.1674L60.2005 64.9724L53.1896 79.4573C52.7799 80.3011 52.686 81.2489 52.9353 82.0594ZM23.7777 107.012L24.453 107.336L34.6967 86.0382C35.1781 85.0389 35.9886 84.2537 36.9263 83.8822L48.2813 79.8207C49.0706 79.5108 49.7529 78.8446 50.1556 77.9968L57.1654 63.4967L55.8987 63.8924L55.8906 63.9106L51.9895 72.0195C51.5586 72.9158 50.8258 73.6113 49.982 73.9221L39.1266 77.7394C38.1869 78.0887 37.3754 78.8658 36.897 79.8731L23.7777 107.012Z" fill="#002B87"/>
<path d="M71.2987 105.01L77.1861 117.235L77.7645 116.958L71.9962 104.984C71.5147 103.984 71.4087 102.861 71.7035 101.896L75.6086 90.5093L77.6171 94.6789L77.6282 94.7031C77.9088 95.3652 77.9573 96.0899 77.7524 96.7086L74.7345 105.358C74.4811 106.127 74.5619 107.041 74.9606 107.85L77.1438 112.3L79.0978 116.355L79.6641 116.082L77.8059 112.225C77.4294 111.445 77.3466 110.568 77.5757 109.815L80.6653 100.745C80.7107 100.597 80.74 100.443 80.7561 100.285C80.8924 100.371 81.0307 100.443 81.175 100.499L90.2429 103.715C90.9726 104.005 91.6075 104.617 91.9829 105.399L93.8411 109.256L94.4074 108.982L92.4523 104.926L90.3357 100.445C89.9512 99.6286 89.2901 98.9978 88.529 98.7162L79.8851 95.6822C79.2734 95.4551 78.7385 94.9676 78.3943 94.3347L78.3822 94.3095L76.3736 90.1399L87.7155 94.1894C88.6511 94.5588 89.4616 95.342 89.9421 96.3402L95.7094 108.315L96.2867 108.038L90.3983 95.8124L87.7387 90.1803C87.2623 89.172 86.4488 88.3938 85.5091 88.0456L74.6517 84.2333C73.8735 83.9477 73.1771 83.3199 72.737 82.5053L63.3371 62.9536L62.7557 62.7093L62.5337 63.3381L71.9285 82.8536L71.9467 82.8899C72.303 83.7387 72.3625 84.6784 72.1021 85.4637L68.2758 96.3453C67.9619 97.2961 68.0638 98.4195 68.5553 99.4187L71.2987 105.01ZM73.8231 79.87L85.179 83.9255C86.1167 84.2979 86.9282 85.0811 87.4097 86.0814L97.6645 107.373L98.2438 107.097L85.2194 79.9124C84.743 78.904 83.9164 78.1319 82.9757 77.7847L72.1203 73.9734C71.2745 73.6626 70.5417 72.9682 70.1097 72.0698L66.1996 63.9478L65.0015 63.5319L71.9477 78.0481C72.3514 78.895 73.0338 79.5601 73.8231 79.87ZM75.1332 118.226L75.8074 117.9L65.5536 96.6067C65.0721 95.6065 64.9641 94.4841 65.2599 93.5192L69.169 82.1107C69.4193 81.3002 69.3245 80.3524 68.9137 79.5076L61.9543 64.9833L61.4739 66.2208L61.483 66.2379L65.386 74.3459C65.818 75.2422 65.9048 76.2485 65.6212 77.1024L61.8312 87.9668C61.5173 88.9196 61.6192 90.038 62.1087 91.0413L75.1332 118.226Z" fill="#94D4FF"/>
<path d="M103.218 79.8372L116.444 82.8632L116.589 82.2374L103.631 79.276C102.55 79.0277 101.606 78.41 101.036 77.5773L94.5736 67.4224L99.0853 68.454L99.1116 68.46C99.803 68.6538 100.4 69.0676 100.756 69.6137L105.633 77.3684C106.076 78.0466 106.84 78.5533 107.721 78.7471L112.561 79.816L116.95 80.8193L117.09 80.2066L112.916 79.2538C112.07 79.06 111.334 78.5776 110.888 77.9296L105.728 69.8559C105.64 69.7277 105.538 69.6086 105.425 69.4976C105.576 69.4441 105.72 69.3825 105.854 69.3038L114.024 64.2249C114.706 63.8342 115.581 63.7192 116.426 63.915L120.598 64.8678L120.739 64.2551L116.349 63.2519L111.526 62.1113C110.649 61.9024 109.743 62.0255 109.048 62.4444L101.285 67.3074C100.725 67.6435 100.01 67.7575 99.3013 67.6314L99.2741 67.6253L94.7624 66.5938L105.003 60.2562C105.875 59.7545 106.993 59.6112 108.073 59.8585L121.029 62.8219L121.174 62.1981L107.945 59.1721L101.884 57.7369C100.798 57.4805 99.6829 57.6309 98.8249 58.1477L89.0718 64.2541C88.3632 64.6841 87.4376 64.8375 86.5262 64.672L65.3817 59.8201L64.8286 60.1229L65.1819 60.6892L86.2951 65.5218L86.3344 65.5309C87.2206 65.7812 87.9908 66.3212 88.4419 67.0146L94.5595 76.7931C95.1066 77.6318 96.0483 78.2536 97.1353 78.4928L103.218 79.8372ZM85.1455 62.18L95.3993 55.8353C96.2754 55.3347 97.3937 55.1893 98.4747 55.4366L121.514 60.7063L121.658 60.0805L92.2875 53.2998C91.2025 53.0425 90.0831 53.207 89.2252 53.7248L79.474 59.8312C78.7039 60.2986 77.7037 60.4378 76.7317 60.2148L67.9454 58.2042L66.8735 58.8804L82.5505 62.508C83.4649 62.721 84.4107 62.6029 85.1455 62.18ZM115.937 85.0847L116.104 84.355L93.0657 79.0842C91.9837 78.8359 91.0389 78.2203 90.4687 77.3876L83.9928 67.2145C83.5154 66.513 82.715 65.9962 81.7995 65.7903L66.1064 62.1678L66.7736 63.3154L66.7918 63.3195L75.5639 65.327C76.5338 65.5481 77.3736 66.1093 77.8641 66.8633L83.9908 76.6023C84.5399 77.4421 85.4785 78.0608 86.5666 78.304L115.937 85.0847Z" fill="#66B5F5"/>
<path d="M103.457 39.1868L114.074 30.7377L113.674 30.234L103.277 38.5126C102.408 39.204 101.336 39.5562 100.33 39.4825L88.361 38.1967L91.9815 35.314L92.0037 35.2979C92.5861 34.878 93.2825 34.67 93.9315 34.7326L103.035 35.7591C103.84 35.8358 104.713 35.5542 105.415 34.987L109.269 31.8722L112.792 29.0683L112.4 28.5767L109.051 31.2434C108.373 31.7834 107.536 32.0579 106.751 32.0014L97.222 30.9981C97.0675 30.987 96.9111 30.992 96.7526 31.0112C96.8061 30.8598 96.8475 30.7084 96.8687 30.555L97.9971 21.0007C98.1172 20.2245 98.5735 19.4695 99.2527 18.9305L102.602 16.2639L102.21 15.7733L98.6875 18.5773L94.7864 21.6345C94.0769 22.1897 93.6075 22.9749 93.5016 23.7783L92.4579 32.8805C92.3721 33.5275 92.0148 34.1573 91.4738 34.6327L91.4526 34.6499L87.8322 37.5325L89.2674 25.575C89.4198 24.5808 90.0052 23.6169 90.8723 22.9275L101.271 14.651L100.874 14.1493L90.2556 22.5994L85.3522 26.441C84.4751 27.1293 83.8968 28.0953 83.7645 29.0874L82.4534 40.5201C82.3474 41.3427 81.8892 42.1603 81.1918 42.7699L64.2087 56.2677L64.0997 56.8895L64.7619 56.9662L81.7106 43.4815L81.7429 43.4563C82.4908 42.9193 83.3941 42.6539 84.2177 42.7346L95.6767 44.0538C96.6729 44.1497 97.7468 43.8015 98.6118 43.101L103.457 39.1868ZM78.3818 42.2945L79.8211 30.3229C79.9765 29.3256 80.5599 28.3607 81.4289 27.6703L99.9199 12.9523L99.5212 12.4486L75.8978 31.1727C75.0197 31.8611 74.4504 32.8371 74.3202 33.8313L73.0081 45.261C72.893 46.1552 72.3783 47.0233 71.5981 47.644L64.5448 53.2569L64.4045 54.5165L77.0202 44.5272C77.757 43.9458 78.2546 43.1333 78.3818 42.2945ZM115.494 32.5202L115.027 31.9348L96.5346 46.6508C95.6656 47.3412 94.5947 47.6955 93.5884 47.6218L81.5985 46.3369C80.7517 46.2723 79.8483 46.5751 79.1166 47.1625L66.4949 57.166L67.807 57.3608L67.8221 57.3487L74.8643 51.7459C75.6425 51.1262 76.6043 50.8194 77.4996 50.9062L88.9343 52.1951C89.9326 52.29 91.0015 51.9427 91.8705 51.2433L115.494 32.5202Z" fill="#61A1E3"/>
<path d="M153.167 35.4402C154.018 35.4402 154.586 34.7781 154.586 33.9908C154.586 33.1702 153.987 32.5404 153.167 32.5404C152.379 32.5404 151.78 33.2025 151.78 33.9908C151.78 34.7781 152.348 35.4402 153.167 35.4402Z" fill="#0F0D0F"/>
<path d="M157.076 35.4402C157.958 35.4402 158.495 34.7781 158.495 33.9908C158.495 33.1702 157.927 32.5404 157.107 32.5404C156.287 32.5404 155.658 33.2025 155.658 33.9908C155.658 34.7781 156.256 35.4402 157.076 35.4402Z" fill="#0F0D0F"/>
<path d="M202.215 55.2678C201.364 55.2678 200.764 55.93 200.764 56.7183C200.764 57.5378 201.364 58.2 202.152 58.2H202.183C203.065 58.2 203.602 57.5378 203.602 56.7183C203.602 55.8987 203.034 55.2678 202.215 55.2678Z" fill="#0F0D0F"/>
<path d="M198.275 55.2678C197.486 55.2678 196.856 55.93 196.856 56.7183C196.856 57.5378 197.455 58.2 198.243 58.2H198.275C199.125 58.2 199.661 57.5378 199.661 56.7183C199.661 55.8987 199.094 55.2678 198.275 55.2678Z" fill="#0F0D0F"/>
<path d="M206.879 34.5576H206.911C207.762 34.5576 208.297 33.8955 208.297 33.0759C208.297 32.2563 207.73 31.6255 206.911 31.6255C206.122 31.6255 205.492 32.2876 205.492 33.0759C205.492 33.8955 206.091 34.5576 206.879 34.5576Z" fill="#0F0D0F"/>
<path d="M210.788 34.5576H210.82C211.703 34.5576 212.239 33.8955 212.239 33.0759C212.239 32.2563 211.671 31.6255 210.851 31.6255C210.031 31.6255 209.402 32.2876 209.402 33.0759C209.402 33.8955 210 34.5576 210.788 34.5576Z" fill="#0F0D0F"/>
<path d="M248.742 55.3309C247.954 55.3309 247.323 55.993 247.323 56.7803C247.323 57.6009 247.922 58.262 248.711 58.262H248.742C249.593 58.262 250.129 57.6009 250.129 56.7803C250.129 55.9617 249.561 55.3309 248.742 55.3309Z" fill="#0F0D0F"/>
<path d="M257.379 48.0808C257.379 41.9653 253.218 37.8674 247.197 37.8674C244.77 37.8674 243.226 38.3721 242.564 38.687L243.194 40.7682C244.108 40.3261 245.464 39.9799 247.103 39.9799C251.673 39.9799 254.699 42.8797 254.699 47.987C254.699 48.7429 254.636 49.4676 254.51 50.0985H241.586C239.632 50.0672 238.307 48.3644 238.339 46.5678V37.8674L235.785 38.7506V45.7795C235.785 48.4906 234.777 50.0985 232.76 50.0985C230.836 50.0985 229.607 48.2696 229.607 46.5365V39.2865L227.054 40.2V46.2842C227.054 48.4906 226.14 50.0985 224.217 50.0985C222.231 50.0985 220.97 48.3019 220.97 46.5365V40.4523L218.416 41.3667V46.2842C218.416 48.4906 217.439 50.0985 215.517 50.0985C213.594 50.0672 212.239 48.3332 212.271 46.5365V37.8674L209.717 38.7506V46.2842C209.717 48.4765 208.751 50.0753 206.854 50.0965C204.914 50.049 203.602 48.3251 203.634 46.5365V37.8674L201.08 38.7506V46.2842C201.08 48.4906 200.103 50.0985 198.18 50.0985H162.404C160.387 50.0985 159.567 48.4906 159.567 45.7795V38.1197C158.748 37.9936 157.424 37.8997 155.69 37.8997C151.434 37.8997 147.399 39.5701 147.399 44.2989C147.399 48.5542 150.961 50.4134 154.712 50.4134C155.468 50.4134 156.478 50.3508 157.991 50.0985C158.937 51.674 160.512 52.1787 161.679 52.1787H199.126C201.018 52.1787 202.436 51.0129 203.066 49.3738C204.075 51.0755 205.525 52.1787 207.763 52.1787C209.654 52.1787 211.104 51.0129 211.702 49.3738C212.712 51.0755 214.162 52.1787 216.4 52.1787C216.422 52.1787 216.44 52.1767 216.46 52.1757L216.462 52.1787C218.354 52.1787 219.772 51.0129 220.403 49.3738C221.349 51.0755 222.893 52.1787 225.068 52.1787C226.959 52.1787 228.41 51.0129 229.008 49.3738C229.985 51.2017 231.498 52.1787 233.705 52.1787C235.06 52.1787 236.889 51.5479 237.771 49.3102C238.686 51.0755 240.23 52.1474 242.469 52.1787H257.82L258.703 50.0985H257.221C257.316 49.4676 257.379 48.8055 257.379 48.0808ZM157.045 48.2696C156.414 48.3332 155.69 48.3957 155.027 48.3957C152.475 48.3957 150.016 47.23 150.016 44.2353C150.016 41.2719 152.222 39.8538 155.06 39.8538C155.878 39.8538 156.478 39.885 157.045 40.0112V48.2696Z" fill="#0F0D0F"/>
<path d="M288.933 45.7796C288.933 48.4735 287.935 50.0763 285.944 50.0965C284.004 50.049 282.692 48.3241 282.723 46.5366V31.6257L280.17 32.5402V46.2832C280.17 48.4906 279.193 50.0975 277.27 50.0975H277.239H275.095V44.4553C275.095 40.7672 273.929 37.8674 269.358 37.8674C265.26 37.8674 262.769 41.177 262.769 45.4011C262.769 49.5938 265.576 52.1787 269.546 52.1787H272.447C272.289 55.1734 271.28 55.8345 268.759 56.2766L269.074 58.2943C272.415 58.3568 275.095 55.8345 275.063 52.1787H278.153C278.174 52.1787 278.193 52.1767 278.214 52.1757L278.216 52.1787C280.107 52.1787 281.525 51.0119 282.156 49.3728C283.164 51.0755 284.614 52.1787 286.852 52.1787H286.853C288.745 52.1777 291.486 50.9484 291.486 46.0945V31.6257L288.933 32.5402V45.7796ZM272.541 50.0975H270.177C267.655 50.0975 265.228 49.0892 265.197 45.18C265.102 41.4293 266.994 39.664 269.137 39.664C271.785 39.664 272.541 41.8704 272.541 43.5096V50.0975Z" fill="#0F0D0F"/>
<path d="M294.008 52.1787H296.562V31.6257L294.008 32.5401V52.1787Z" fill="#0F0D0F"/>
<path d="M315.695 55.2678C314.844 55.2678 314.245 55.93 314.245 56.7183C314.245 57.5378 314.813 58.2 315.632 58.2H315.664C316.515 58.2 317.082 57.5378 317.082 56.7183C317.082 55.8987 316.482 55.2678 315.695 55.2678Z" fill="#0F0D0F"/>
<path d="M323.197 45.7795C323.197 48.4906 322.187 50.0975 320.171 50.0975H311.375C308.508 50.0975 306.648 47.5449 306.648 44.7389C306.648 41.7129 308.633 39.8215 310.083 38.8757L309.138 37.4576C307.215 38.2459 304.315 40.7046 304.315 44.7702C304.315 49.7826 308.098 52.1787 311.375 52.1787H321.116C323.008 52.1787 325.75 50.9493 325.75 46.0945V37.8674L323.197 38.7506V45.7795Z" fill="#0F0D0F"/>
<path d="M336.404 37.8678C332.306 37.8678 329.816 41.1774 329.816 45.4015C329.816 49.5942 332.401 52.4628 336.688 52.4628C337.791 52.4628 338.706 52.3679 339.493 52.1791C339.336 55.1738 338.265 55.9298 335.805 56.277L336.121 58.2947C340.44 58.1998 342.141 55.4887 342.141 50.9498V44.4557C342.141 40.7676 340.975 37.8678 336.404 37.8678ZM339.588 50.2251C338.894 50.3825 338.075 50.4764 337.035 50.4764C334.482 50.4764 332.274 49.0896 332.243 45.1814C332.149 42.1868 333.505 39.6644 336.183 39.6644C338.832 39.6644 339.588 41.8708 339.588 43.51V50.2251Z" fill="#0F0D0F"/>
<path d="M346.492 50.2246C346.649 55.457 345.105 56.0565 342.709 56.2765L343.025 58.2942C347.249 58.168 349.014 55.7093 349.014 51.1703V40.7359L346.492 41.6503V50.2246Z" fill="#0F0D0F"/>
<path d="M365.847 43.7621C365.059 40.3577 363.041 37.8676 359.417 37.8676C357.778 37.8676 356.202 38.561 355.224 39.2232L355.665 41.1772C356.517 40.5787 357.84 39.9479 359.069 39.9479C361.56 39.9479 362.915 41.6506 363.388 44.077L364.713 50.0977H352.797L351.914 52.179H367.739L365.847 43.7621Z" fill="#0F0D0F"/>
<path d="M161.055 77.5683C161.055 82.6079 157.838 86.3 152.424 86.3H147.409V68.8366H152.424C157.838 68.8366 161.055 72.5287 161.055 77.5683ZM158.81 77.5683C158.81 73.851 156.565 70.832 152.298 70.832H149.505V84.3046H152.298C156.565 84.3046 158.81 81.2857 158.81 77.5683Z" fill="#0F0D0F"/>
<path d="M174.677 68.8366H176.772V79.8636C176.772 83.8302 174.402 86.5999 170.412 86.5999C166.42 86.5999 164.05 83.8302 164.05 79.8636V68.8366H166.145V79.6395C166.145 82.4576 167.393 84.6034 170.412 84.6034C173.429 84.6034 174.677 82.4576 174.677 79.6395V68.8366Z" fill="#0F0D0F"/>
<path d="M180.865 68.8368H185.405C188.873 68.8368 191.243 70.8827 191.243 74.0006C191.243 78.1419 187.476 78.916 186.977 78.9907L191.817 86.3003H189.297L184.582 79.1653H182.96V86.3003H180.865V68.8368ZM189.147 74.0006C189.147 72.0798 187.875 70.8323 185.53 70.8323H182.96V77.1689H185.53C187.875 77.1689 189.147 75.9223 189.147 74.0006Z" fill="#0F0D0F"/>
<path d="M210.827 77.5684C210.827 82.6079 207.235 86.5999 202.196 86.5999C197.156 86.5999 193.564 82.6079 193.564 77.5684C193.564 72.5288 197.156 68.5379 202.196 68.5379C207.235 68.5379 210.827 72.5288 210.827 77.5684ZM208.583 77.5684C208.583 73.851 206.012 70.5333 202.196 70.5333C198.378 70.5333 195.81 73.851 195.81 77.5684C195.81 81.2857 198.378 84.6034 202.196 84.6034C206.012 84.6034 208.583 81.2857 208.583 77.5684Z" fill="#0F0D0F"/>
<path d="M224.45 68.8366H226.545V79.8636C226.545 83.8302 224.175 86.5999 220.184 86.5999C216.192 86.5999 213.822 83.8302 213.822 79.8636V68.8366H215.918V79.6395C215.918 82.4576 217.165 84.6034 220.184 84.6034C223.202 84.6034 224.45 82.4576 224.45 79.6395V68.8366Z" fill="#0F0D0F"/>
<path d="M230.638 68.8368H235.228C238.82 68.8368 240.841 70.6829 240.841 73.6019C240.841 75.9718 239.12 76.97 238.871 77.0195C239.12 77.07 241.789 77.8431 241.789 81.3102C241.789 84.3543 239.544 86.3003 236.101 86.3003H230.638V68.8368ZM235.577 76.3715C237.548 76.3715 238.746 75.2986 238.746 73.6019C238.746 71.9052 237.548 70.8323 235.577 70.8323H232.733V76.3715H235.577ZM239.693 81.3102C239.693 79.6639 238.596 78.3165 236.101 78.3165H232.733V84.3038H236.101C238.596 84.3038 239.693 82.9574 239.693 81.3102Z" fill="#0F0D0F"/>
<path d="M251.668 68.8368H253.763V84.3038H261.597V86.3003H251.668V68.8368Z" fill="#0F0D0F"/>
<path d="M280.009 77.5684C280.009 82.6079 276.416 86.5999 271.377 86.5999C266.337 86.5999 262.745 82.6079 262.745 77.5684C262.745 72.5288 266.337 68.5379 271.377 68.5379C276.416 68.5379 280.009 72.5288 280.009 77.5684ZM277.764 77.5684C277.764 73.851 275.194 70.5333 271.377 70.5333C267.561 70.5333 264.991 73.851 264.991 77.5684C264.991 81.2857 267.561 84.6034 271.377 84.6034C275.194 84.6034 277.764 81.2857 277.764 77.5684Z" fill="#0F0D0F"/>
<path d="M291.012 76.72H297.448V84.3041C297.448 84.3041 295.128 86.5994 290.588 86.5994C285.548 86.5994 281.907 82.6075 281.907 77.5679C281.907 72.5293 285.548 68.5374 290.588 68.5374C295.104 68.5374 296.974 71.0072 296.974 71.0072L295.477 72.4788C295.477 72.4788 293.806 70.5328 290.588 70.5328C286.796 70.5328 284.151 73.8515 284.151 77.5679C284.151 81.2852 286.796 84.6039 290.588 84.6039C293.781 84.6039 295.377 83.3311 295.377 83.3311V78.7155H291.012V76.72Z" fill="#0F0D0F"/>
<path d="M301.241 68.8368H303.336V86.3003H301.241V68.8368Z" fill="#0F0D0F"/>
<path d="M312.418 78.4419C309.873 77.2691 307.627 76.0973 307.627 73.1278C307.627 71.0829 309.324 68.5374 312.667 68.5374C315.96 68.5374 317.632 71.0829 317.632 71.0829L316.06 72.3547C316.06 72.3547 314.837 70.5338 312.667 70.5338C310.746 70.5338 309.723 71.8803 309.723 73.1278C309.723 74.8992 311.22 75.5976 313.615 76.6958C316.284 77.9181 317.956 79.0405 317.956 81.8595C317.956 84.7038 315.611 86.5994 312.542 86.5994C308.4 86.5994 306.979 82.9567 306.979 82.9567L308.725 81.909C308.725 81.909 309.773 84.6039 312.542 84.6039C314.213 84.6039 315.81 83.6562 315.81 81.8595C315.81 80.0387 314.364 79.3403 312.418 78.4419Z" fill="#0F0D0F"/>
<path d="M324.617 70.8328H319.603V68.8374H331.727V70.8328H326.713V86.2998H324.617V70.8328Z" fill="#0F0D0F"/>
<path d="M334.472 68.8368H336.568V86.3003H334.472V68.8368Z" fill="#0F0D0F"/>
<path d="M353.358 72.5787C353.358 72.5787 351.737 70.5328 348.543 70.5328C344.751 70.5328 342.156 73.8515 342.156 77.5679C342.156 81.2852 344.751 84.6039 348.543 84.6039C351.712 84.6039 353.582 82.2835 353.582 82.2835L355.004 83.7298C355.004 83.7298 352.634 86.5994 348.543 86.5994C343.504 86.5994 339.912 82.6075 339.912 77.5679C339.912 72.5293 343.504 68.5374 348.543 68.5374C352.634 68.5374 354.805 71.2071 354.805 71.2071L353.358 72.5787Z" fill="#0F0D0F"/>
<path d="M362.189 78.4419C359.644 77.2691 357.398 76.0973 357.398 73.1278C357.398 71.0829 359.095 68.5374 362.438 68.5374C365.732 68.5374 367.403 71.0829 367.403 71.0829L365.831 72.3547C365.831 72.3547 364.609 70.5338 362.438 70.5338C360.517 70.5338 359.495 71.8803 359.495 73.1278C359.495 74.8992 360.992 75.5976 363.387 76.6958C366.056 77.9181 367.727 79.0405 367.727 81.8595C367.727 84.7038 365.382 86.5994 362.314 86.5994C358.173 86.5994 356.75 82.9567 356.75 82.9567L358.497 81.909C358.497 81.909 359.544 84.6039 362.314 84.6039C363.985 84.6039 365.582 83.6562 365.582 81.8595C365.582 80.0387 364.135 79.3403 362.189 78.4419Z" fill="#0F0D0F"/>
</svg>
