<svg width="24" height="24" viewBox="0 0 24 24" fill="none" xmlns="http://www.w3.org/2000/svg">
<path d="M16.3904 20.5575C14.4841 21.5469 12.3304 21.856 10.1592 21.4535C6.25439 20.7267 3.10322 17.4764 2.49422 13.5482M16.3904 20.5575L23.2947 10.656C23.5397 12.7794 23.1967 14.9097 22.3019 16.8149C21.7641 17.9652 20.5577 18.7095 19.2312 18.7095C17.6416 18.7095 16.3013 17.6271 15.9075 16.1607C15.9329 16.1368 15.958 16.1128 15.9829 16.0885L15.8607 15.9632L15.6893 15.9984C15.6965 16.0334 15.7042 16.0682 15.7124 16.1028C14.7293 16.9948 13.4286 17.5429 11.9991 17.5429C8.94355 17.5429 6.45739 15.0567 6.45739 12.0012C6.45739 8.94569 8.94355 6.45952 11.9991 6.45952C13.3843 6.45952 14.6442 6.97858 15.6157 7.82241V7.98085H15.7907L15.9108 7.85357C15.8713 7.81628 15.8313 7.77953 15.7907 7.74334V7.33452C15.7907 6.85152 16.1827 6.45952 16.6657 6.45952C17.1487 6.45952 17.5407 6.85152 17.5407 7.33452V15.269C17.5407 16.2 18.2979 16.9572 19.2277 16.9595H19.2312C19.8822 16.9595 20.4667 16.6107 20.7199 16.0717C21.4759 14.4605 21.7652 12.6569 21.5576 10.8555C21.0489 6.44902 17.3296 2.82185 12.9067 2.41819C9.93055 2.14519 7.02672 3.23602 4.98155 5.41419C2.93639 7.59235 2.02989 10.5569 2.49422 13.5482M16.3904 20.5575C16.8186 20.3324 17.3459 20.5015 17.5699 20.9297C17.7939 21.3579 17.6271 21.8875 17.1977 22.1092C15.5842 22.9492 13.8226 23.3762 12.0119 23.3762C11.2932 23.3762 10.5676 23.3085 9.83955 23.1732M16.3904 20.5575L23.2982 10.6549M2.49422 13.5482L2.32129 13.575M2.49422 13.5482L2.32129 13.575M9.83955 23.1732L9.87161 23.0011C9.87158 23.0011 9.87156 23.0011 9.87154 23.0011M9.83955 23.1732C5.21839 22.3122 1.48739 18.4645 0.766387 13.8154C0.21922 10.2874 1.29139 6.78852 3.70755 4.21485C6.12372 1.64235 9.52222 0.360186 13.0677 0.67402M9.83955 23.1732L9.87154 23.0011M9.87154 23.0011C10.5893 23.1346 11.3042 23.2012 12.0119 23.2012C13.7946 23.2012 15.5285 22.7809 17.1169 21.954L17.1174 21.9537C17.4604 21.7766 17.5939 21.3532 17.4148 21.0108C17.235 20.667 16.8129 20.533 16.4718 20.7124L16.471 20.7128C14.529 21.7207 12.3356 22.035 10.1273 21.6256L10.1272 21.6256C6.14923 20.8851 2.94165 17.5765 2.32129 13.575M9.87154 23.0011C5.32349 22.1537 1.64894 18.3643 0.93932 13.7885L0.766541 13.8153L0.93932 13.7885C0.400303 10.3131 1.45633 6.86851 3.83514 4.33463C6.21398 1.80189 9.55942 0.539238 13.052 0.848316M2.32129 13.575C1.84881 10.5312 2.77136 7.51246 4.85398 5.2944C6.93636 3.0766 9.89327 1.96606 12.9226 2.24391C17.4278 2.65509 21.2132 6.34648 21.7314 10.8355L21.7314 10.8355C21.9427 12.6684 21.6484 14.5048 20.8783 16.146L20.8783 16.1461C20.5931 16.7533 19.9421 17.1345 19.2312 17.1345H19.2277H19.2273C18.2011 17.1319 17.3657 16.2967 17.3657 15.269V7.33452C17.3657 6.94817 17.0521 6.63452 16.6657 6.63452C16.2794 6.63452 15.9657 6.94817 15.9657 7.33452V7.98085V8.38659L15.6706 8.10813C14.708 7.19985 13.4214 6.63452 11.9991 6.63452C9.0402 6.63452 6.63239 9.04234 6.63239 12.0012C6.63239 14.96 9.0402 17.3679 11.9991 17.3679C13.4536 17.3679 14.7707 16.7819 15.7385 15.8379L15.9677 15.6144L16.0321 15.9279C16.3378 17.414 17.6559 18.5345 19.2312 18.5345C20.4937 18.5345 21.6359 17.8261 22.1434 16.7407L22.1435 16.7405C23.0243 14.8652 23.3622 12.7677 23.1209 10.6761L23.1046 10.5349L23.1072 10.534M23.1072 10.534C23.1132 10.5809 23.1189 10.6279 23.1244 10.6749L23.2945 10.6553L23.2982 10.6549M23.1072 10.534L23.2394 10.49L23.2429 10.4888L23.2982 10.6549M23.1072 10.534C22.446 5.38531 18.2388 1.32192 13.052 0.848316M23.2982 10.6549C22.6869 5.35702 18.3842 1.15935 13.0677 0.67402M13.052 0.848316C13.0521 0.848323 13.0522 0.848331 13.0523 0.848338L13.0677 0.67402M13.052 0.848316C13.052 0.848309 13.0519 0.848302 13.0518 0.848295L13.0677 0.67402M8.03355 12C8.03355 14.1873 9.8129 15.9667 12.0002 15.9667C14.1875 15.9667 15.9669 14.1873 15.9669 12C15.9669 9.8127 14.1875 8.03335 12.0002 8.03335C9.8129 8.03335 8.03355 9.8127 8.03355 12Z" fill="#0B44AA" stroke="#AFDFFF" stroke-width="0.35"/>
</svg>
